<?xml version="1.0" encoding="utf-8"?>
<!-- Generator: Adobe Illustrator 25.1.0, SVG Export Plug-In . SVG Version: 6.00 Build 0)  -->
<svg version="1.1" id="Layer_1" xmlns="http://www.w3.org/2000/svg" xmlns:xlink="http://www.w3.org/1999/xlink" x="0px" y="0px"
	 viewBox="0 0 817.1 253.4" style="enable-background:new 0 0 817.1 253.4;" xml:space="preserve">
<style type="text/css">
	.st0{fill:#E64A38;}
	.st1{fill:#1D1D1B;}
</style>
<g>
	<polygon class="st0" points="59.7,141.6 31.4,211.6 0,85.6 45.7,85.6 	"/>
	<path class="st0" d="M87,213.9c-3.5,8.6-11.9,14.3-21.2,14.3H35.6v0l28.2-69.9v0l29.4-72.7l11.5-28.5h47.4l7.1,28.5l13.9,55.9
		l-28.3,70.1l-21.7-87L87,213.9z"/>
	<path class="st0" d="M241.2,0H287l-86.4,213.9c-3.5,8.6-11.9,14.3-21.2,14.3H149L241.2,0z"/>
</g>
<g>
	<path class="st1" d="M396.8,58.7h16.3l-18.9,59.6h-14.7l-11-36.1l-11,36.1h-14.7L324,58.7h16.3l10.1,36.6l10.8-36.6h14.5l10.8,36.7
		L396.8,58.7z"/>
	<path class="st1" d="M448.2,120c-8.8,0-16.3-3-22.4-9.1c-6.1-6.1-9.1-13.6-9.1-22.4s3-16.2,9.1-22.3c6.1-6.1,13.6-9.2,22.4-9.2
		c8.8,0,16.3,3.1,22.4,9.2c6.1,6.1,9.2,13.5,9.2,22.3s-3.1,16.3-9.2,22.4C464.6,117,457.1,120,448.2,120z M448.2,104.9
		c4.6,0,8.5-1.5,11.6-4.6c3.1-3.1,4.6-7,4.6-11.8s-1.5-8.7-4.6-11.8c-3.1-3.1-6.9-4.6-11.6-4.6c-4.6,0-8.5,1.5-11.6,4.6
		c-3,3.1-4.5,7-4.5,11.8s1.5,8.7,4.5,11.8C439.8,103.4,443.6,104.9,448.2,104.9z"/>
	<path class="st1" d="M577.5,81.6v36.7h-15.4V82.7c0-7.1-3.7-11.3-10-11.3c-7,0-11.1,4.8-11.1,13.5v33.5h-15.4V82.7
		c0-7.1-3.7-11.3-10-11.3c-6.8,0-11.2,4.8-11.2,13.5v33.5h-15.4V58.7h15.4V65c3.6-5.4,9.1-8,16.6-8c7.3,0,12.8,2.9,16.2,8.6
		c3.9-5.7,9.9-8.6,17.8-8.6C568.7,57,577.5,66.7,577.5,81.6z"/>
	<path class="st1" d="M602.8,94.8c2,7.5,7.6,11.2,16.8,11.2c5.8,0,10.4-2,13.3-6l12.4,7.2c-5.8,8.5-14.5,12.7-26,12.7
		c-9.9,0-17.8-3-23.7-8.9c-6-6-8.9-13.5-8.9-22.5c0-8.9,3-16.4,8.8-22.4C601.4,60,609,57,618.2,57c8.7,0,16,3,21.6,9.1
		c5.7,6.1,8.6,13.5,8.6,22.4c0,2-0.2,4.1-0.6,6.3H602.8z M633,82.9c-1.8-8.1-7.7-12-14.8-12c-8.2,0-13.8,4.4-15.6,12H633z"/>
	<path class="st1" d="M708.3,63.6c4.3,4.4,6.4,10.4,6.4,18.1v36.6h-15.4V83.6c0-8-4.6-12.3-11.8-12.3c-8,0-13.1,4.9-13.1,14.8v32.2
		h-15.4V58.7h15.4v6.7c3.7-5.6,9.7-8.3,17.8-8.3C698.8,57,704.2,59.2,708.3,63.6z"/>
	<path class="st1" d="M327.9,151.8c0-5.1,4.3-9.5,9.4-9.5c5.2,0,9.5,4.4,9.5,9.5s-4.3,9.4-9.5,9.4
		C332.2,161.2,327.9,156.9,327.9,151.8z M329.7,227.9v-59.6h15.4v59.6H329.7z"/>
	<path class="st1" d="M408.4,173.2c4.3,4.4,6.4,10.4,6.4,18.1v36.6h-15.4v-34.7c0-8-4.6-12.3-11.8-12.3c-8,0-13.1,4.9-13.1,14.8
		v32.2h-15.4v-59.6h15.4v6.7c3.7-5.6,9.7-8.3,17.8-8.3C398.8,166.7,404.2,168.8,408.4,173.2z"/>
	<path class="st1" d="M504.1,168.3h15v56.7c0,9.2-3.1,16.2-9.2,21.1c-6.1,4.9-13.3,7.3-21.9,7.3c-12.9,0-23-5-28.2-14.5l13.1-7.5
		c3,5.6,8.2,8.3,15.6,8.3c9.7,0,15.6-5.2,15.6-14.7v-6.4c-4.5,6.1-10.8,9.1-19.1,9.1c-8.5,0-15.5-3-21.2-8.8
		c-5.6-6-8.5-13.2-8.5-21.7c0-8.5,2.9-15.6,8.6-21.6c5.7-6,12.7-8.9,21.1-8.9c8.2,0,14.5,3,19.1,9.1V168.3z M499.4,185.6
		c-3.1-3.1-7-4.6-11.9-4.6c-4.9,0-8.8,1.5-12,4.6c-3.1,3-4.6,6.9-4.6,11.6c0,9.5,7,16.3,16.7,16.3c9.7,0,16.7-6.8,16.7-16.3
		C504.1,192.5,502.6,188.6,499.4,185.6z"/>
	<path class="st1" d="M576.8,168.3h15.4v59.6h-15.4v-7c-4.6,5.8-11.1,8.7-19.4,8.7c-8,0-14.8-3-20.5-9.1c-5.6-6.1-8.5-13.6-8.5-22.4
		s2.9-16.2,8.5-22.3c5.7-6.1,12.5-9.2,20.5-9.2c8.3,0,14.8,2.9,19.4,8.7V168.3z M560.2,214.9c4.8,0,8.7-1.5,11.8-4.6
		c3.2-3.2,4.8-7.3,4.8-12.2s-1.5-8.9-4.8-12c-3.1-3.2-7-4.8-11.8-4.8c-4.8,0-8.7,1.5-11.8,4.8c-3.1,3.1-4.6,7.1-4.6,12
		s1.5,8.9,4.6,12.2C551.5,213.4,555.5,214.9,560.2,214.9z"/>
	<path class="st1" d="M693,191.2v36.7h-15.4v-35.6c0-7.1-3.7-11.3-10-11.3c-7,0-11.1,4.8-11.1,13.5v33.5h-15.4v-35.6
		c0-7.1-3.7-11.3-10-11.3c-6.8,0-11.2,4.8-11.2,13.5v33.5h-15.4v-59.6h15.4v6.3c3.6-5.4,9.1-8,16.6-8c7.3,0,12.8,2.9,16.2,8.6
		c3.9-5.7,9.9-8.6,17.8-8.6C684.2,166.7,693,176.3,693,191.2z"/>
	<path class="st1" d="M717.5,204.4c2,7.5,7.6,11.2,16.8,11.2c5.8,0,10.4-2,13.3-6l12.4,7.2c-5.8,8.5-14.5,12.7-26,12.7
		c-9.9,0-17.8-3-23.7-8.9c-6-6-8.9-13.5-8.9-22.5c0-8.9,3-16.4,8.8-22.4c5.8-6.1,13.5-9.1,22.6-9.1c8.7,0,16,3,21.6,9.1
		c5.7,6.1,8.6,13.5,8.6,22.4c0,2-0.2,4.1-0.6,6.3H717.5z M747.7,192.5c-1.8-8.1-7.7-12-14.8-12c-8.2,0-13.8,4.4-15.6,12H747.7z"/>
	<path class="st1" d="M797.2,191.8c8.7,1.8,20,6,19.9,18.7c0,6.1-2.3,10.8-6.9,14.2c-4.5,3.2-10.2,4.9-17,4.9
		c-12.3,0-20.6-4.8-25-14.2l13.3-7.5c1.8,5.1,5.6,7.7,11.7,7.7c5.5,0,8.2-1.7,8.2-5.1c0-3.2-4.8-5-10.8-6.6
		c-8.8-2.3-19.9-6-19.9-18.4c0-5.8,2.1-10.5,6.4-13.8c4.4-3.5,9.8-5.1,16.2-5.1c9.7,0,18,4.5,22.6,12.6l-13.1,7.1
		c-1.9-4.1-5.1-6.1-9.5-6.1c-3.9,0-6.9,1.9-6.9,4.9C786.4,188.5,791.1,190.3,797.2,191.8z"/>
</g>
</svg>
