<?xml version="1.0" standalone="no"?>
<!DOCTYPE svg PUBLIC "-//W3C//DTD SVG 20010904//EN"
 "http://www.w3.org/TR/2001/REC-SVG-20010904/DTD/svg10.dtd">
<svg version="1.0" xmlns="http://www.w3.org/2000/svg"
 width="225.000000pt" height="225.000000pt" viewBox="0 0 225.000000 225.000000"
 preserveAspectRatio="xMidYMid meet">

<g transform="translate(0.000000,225.000000) scale(0.100000,-0.100000)"
fill="#000000" stroke="none">
<path d="M1059 2239 c-64 -15 -137 -52 -429 -219 -315 -180 -378 -220 -432
-277 -85 -88 -97 -171 -97 -653 -1 -333 7 -424 40 -499 40 -92 94 -132 474
-353 377 -219 440 -247 538 -234 80 11 145 43 458 221 324 185 386 225 441
282 85 88 97 171 97 653 1 333 -7 424 -40 499 -40 92 -94 132 -474 353 -404
235 -456 256 -576 227z m215 -218 c149 -52 453 -233 562 -334 132 -123 155
-205 155 -552 -1 -466 -38 -533 -424 -759 -288 -169 -426 -203 -591 -146 -162
55 -460 236 -572 345 -127 125 -146 197 -145 550 0 331 26 437 132 544 113
115 480 327 635 366 74 18 170 13 248 -14z"/>
<path d="M1014 1911 c-109 -40 -252 -165 -341 -296 -100 -148 -191 -376 -214
-533 -6 -46 -9 -132 -7 -192 4 -97 8 -115 37 -175 35 -70 128 -178 181 -208
l31 -19 -6 129 c-20 362 83 716 259 895 139 141 276 111 411 -92 133 -200 189
-433 183 -755 -2 -96 -1 -175 1 -175 2 0 28 18 57 40 64 48 123 124 161 205
26 56 27 68 27 195 -1 200 -34 328 -136 536 -94 192 -242 356 -387 427 -83 41
-179 47 -257 18z"/>
<path d="M1055 1286 c-42 -18 -93 -79 -101 -121 -30 -164 160 -280 283 -172
42 37 63 81 63 132 0 124 -132 210 -245 161z"/>
</g>
</svg>
